<?xml version="1.0" encoding="utf-8"?>
<!-- Generator: Adobe Illustrator 24.3.0, SVG Export Plug-In . SVG Version: 6.00 Build 0)  -->
<svg version="1.1" id="Layer_1" xmlns="http://www.w3.org/2000/svg" xmlns:xlink="http://www.w3.org/1999/xlink" x="0px" y="0px"
	 viewBox="0 0 4000 200" style="enable-background:new 0 0 4000 200;" xml:space="preserve">
<style type="text/css">
	.st0{fill:#FDD9DC;}
</style>
<path class="st0" d="M3666.5,77.3c-130,0-163.3-55.5-333.5-55.5c-171.8,0-203.5,55.5-333.5,55.5c-129.7,0-163.2-55.3-332.5-55.5v0
	c-0.2,0-0.3,0-0.5,0c-0.2,0-0.3,0-0.5,0v0c-170.9,0.2-202.8,55.5-332.5,55.5c-130,0-163.3-55.5-333.5-55.5
	c-171.8,0-203.5,55.5-333.5,55.5c-129.7,0-163.2-55.3-332.5-55.5v0c-0.2,0-0.3,0-0.5,0c-0.2,0-0.3,0-0.5,0v0
	c-170.9,0.2-202.8,55.5-332.5,55.5c-130,0-163.3-55.5-333.5-55.5c-171.8,0-203.5,55.5-333.5,55.5S170.2,21.8,0,21.8v180h1333h1h1332
	h1h1333v-180C3828.2,21.8,3796.5,77.3,3666.5,77.3z"/>
</svg>
